<?xml version="1.0" encoding="utf-8"?>
<!-- Generator: Adobe Illustrator 22.1.0, SVG Export Plug-In . SVG Version: 6.00 Build 0)  -->
<svg version="1.1" id="Layer_1" xmlns="http://www.w3.org/2000/svg" xmlns:xlink="http://www.w3.org/1999/xlink" x="0px" y="0px"
	 viewBox="0 0 145.4 128" enable-background="new 0 0 145.4 128" xml:space="preserve">
<g>
	<path fill="none" stroke="#23364A" stroke-width="6.5" stroke-miterlimit="10" d="M140.3,60.3h-32.8l12.2-30.3
		c1.3-3.2,5.8-3.3,7.2-0.1L140.3,60.3z"/>
	
		<line fill="none" stroke="#23364A" stroke-width="6.5" stroke-linecap="round" stroke-miterlimit="10" x1="19.3" y1="50.8" x2="123.1" y2="27.9"/>
	<line fill="none" stroke="#23364A" stroke-width="6.5" stroke-miterlimit="10" x1="70.3" y1="22.6" x2="70.3" y2="114.4"/>
	<line fill="none" stroke="#23364A" stroke-width="6.5" stroke-miterlimit="10" x1="44.7" y1="112.8" x2="96" y2="112.8"/>
	<line fill="none" stroke="#23364A" stroke-width="6.5" stroke-miterlimit="10" x1="44.7" y1="124.8" x2="96" y2="124.8"/>
	<line fill="none" stroke="#23364A" stroke-width="6.5" stroke-miterlimit="10" x1="102.6" y1="72.9" x2="145.4" y2="72.9"/>
	<path fill="none" stroke="#F4963B" stroke-width="6.5" stroke-miterlimit="10" d="M37.6,83.3H4.8L17,53c1.3-3.2,5.8-3.3,7.2-0.1
		L37.6,83.3z"/>
	<line fill="none" stroke="#F4963B" stroke-width="6.5" stroke-miterlimit="10" x1="0.4" y1="95.3" x2="43.3" y2="95.3"/>
	<path fill="none" stroke="#23364A" stroke-width="6.5" stroke-miterlimit="10" d="M71.5,23.5h-1.7c-5.1,0-9.2-4.2-9.2-9.2v-1.7
		c0-5.1,4.2-9.2,9.2-9.2h1.7c5.1,0,9.2,4.2,9.2,9.2v1.7C80.7,19.3,76.6,23.5,71.5,23.5z"/>
</g>
</svg>
