<?xml version="1.0" encoding="utf-8"?>
<!-- Generator: Adobe Illustrator 22.1.0, SVG Export Plug-In . SVG Version: 6.00 Build 0)  -->
<svg version="1.1" id="Layer_1" xmlns="http://www.w3.org/2000/svg" xmlns:xlink="http://www.w3.org/1999/xlink" x="0px" y="0px"
	 viewBox="0 0 84.3 132.4" enable-background="new 0 0 84.3 132.4" xml:space="preserve">
<path fill="none" stroke="#23364A" stroke-width="6.5" stroke-miterlimit="10" d="M25.2,107.3H10.1c-3.8,0-6.9-3.1-6.9-6.9V67.9
	c0-6.3,5.1-11.5,11.5-11.5h0l51.9,0.4c8,0,14.5,6.5,14.5,14.5v57.8H13.8v-14.9"/>
<path fill="none" stroke="#23364A" stroke-width="6.5" stroke-miterlimit="10" d="M50.9,92.9c4,0,7.2,3.2,7.2,7.2v0
	c0,4-3.2,7.2-7.2,7.2"/>
<line fill="none" stroke="#23364A" stroke-width="6.5" stroke-miterlimit="10" x1="64.7" y1="129" x2="64.7" y2="79.1"/>
<polyline fill="none" stroke="#F4963B" stroke-width="6.5" stroke-miterlimit="10" points="27.7,19.6 48.9,19.5 68.6,19.5 "/>
<line fill="none" stroke="#F4963B" stroke-width="6.5" stroke-miterlimit="10" x1="54.9" y1="3.5" x2="48.2" y2="18.8"/>
<circle fill="none" stroke="#23364A" stroke-width="6.5" stroke-miterlimit="10" cx="46.5" cy="24.1" r="20.9"/>
<polygon fill="none" stroke="#F4963B" stroke-width="6.5" stroke-miterlimit="10" points="49.9,113.2 25.4,113.2 29.1,56.5 
	46.2,56.7 "/>
</svg>
