<svg xmlns="http://www.w3.org/2000/svg" viewBox="0 0 252.1 73.3"><g fill="currentColor"><path d="M11.1 57.9c0 .7-.1 1.4-.4 2.1s-.6 1.3-1 1.8c-.5.5-1 .9-1.7 1.2a6 6 0 0 1-2.4.5c-1.5 0-2.7-.3-3.6-1a5.4 5.4 0 0 1-1.9-3.3l3.1-.7c.1.6.4 1.1.7 1.5.4.4.9.6 1.5.6.9 0 1.6-.3 1.9-1 .3-.6.4-1.5.4-2.6V44.5H11v13.4zM15.6 44.5h12.3v3h-9V52h8.5v3h-8.5v5h9.5v3H15.6V44.5zM32.2 44.5h4.4l9 13.8h.1V44.5H49v18.6h-4.2l-9.2-14.3h-.1v14.3h-3.3V44.5zM53.6 44.5h3.3v7.9h.1l7.7-7.9h4.5l-8.7 8.6 9.3 10h-4.6L57.1 54h-.2v9.1h-3.3V44.5zM72 44.5h3.3v18.6H72V44.5zM79.9 44.5h4.4l9 13.8h.1V44.5h3.3v18.6h-4.2l-9.2-14.3h-.1v14.3h-3.3V44.5zM110.4 48.5a3 3 0 0 0-1.4-1.1c-.6-.2-1.2-.4-1.9-.4l-1.1.1a3 3 0 0 0-1 .4l-.7.7a2 2 0 0 0-.3 1.1c0 .6.2 1.1.7 1.4l1.6.9 2.1.7c.8.2 1.5.5 2.1.9.6.4 1.2.9 1.6 1.6s.7 1.5.7 2.7c0 1-.2 1.9-.6 2.6a7 7 0 0 1-1.5 1.9c-.6.5-1.3.9-2.2 1.1s-1.7.4-2.6.4c-1.2 0-2.3-.2-3.3-.6s-2-1-2.8-1.9l2.5-2.4c.4.6.9 1.1 1.6 1.4s1.4.5 2.1.5a5 5 0 0 0 1.2-.2l1-.5.8-.8c.2-.3.3-.7.3-1.1 0-.7-.2-1.2-.7-1.6-.4-.4-1-.7-1.6-.9l-2.1-.7c-.8-.2-1.5-.5-2.1-.9s-1.2-.9-1.6-1.6a5 5 0 0 1-.7-2.6 5 5 0 0 1 2.1-4.2c.6-.5 1.4-.8 2.2-1a10.7 10.7 0 0 1 5.3.1c.9.3 1.7.8 2.5 1.5l-2.2 2.5zM125.2 44.5h3.3v15.6h7.9v3h-11.2V44.5zM138.4 53.9a9.8 9.8 0 0 1 2.7-7.2c.9-.9 1.9-1.5 3.1-2a12.5 12.5 0 0 1 8-.1c1.2.4 2.2 1.1 3.1 2s1.6 1.9 2 3.1c.5 1.2.7 2.6.7 4 0 1.5-.2 2.8-.7 4a11 11 0 0 1-2 3.1c-.9.9-1.9 1.5-3.1 2-1.2.5-2.5.7-4 .7-1.4 0-2.8-.2-4-.7a9.2 9.2 0 0 1-3.1-2 8.3 8.3 0 0 1-2-3.1 9.2 9.2 0 0 1-.7-3.8zm3.4-.3c0 1 .2 1.9.5 2.8.3.8.7 1.6 1.3 2.2.6.6 1.2 1.1 2 1.4a7 7 0 0 0 5.2 0c.8-.3 1.5-.8 2-1.4.6-.6 1-1.3 1.3-2.2a7.5 7.5 0 0 0 0-5.4c-.3-.8-.7-1.5-1.3-2.1a5.6 5.6 0 0 0-2-1.4 7 7 0 0 0-5.2 0c-.8.3-1.4.8-2 1.4-.6.6-1 1.3-1.3 2.1a8 8 0 0 0-.5 2.6zM161.7 44.5h6.5l2.6.2c.8.2 1.6.5 2.2.9.6.4 1.2.9 1.5 1.6.4.7.6 1.5.6 2.6 0 1.3-.4 2.5-1.1 3.4-.7.9-1.8 1.5-3.2 1.7l4.9 8.2h-4l-4.3-7.9H165v7.9h-3.3V44.5zm5.9 7.9l1.4-.1c.5 0 .9-.1 1.3-.3.4-.2.7-.4 1-.8s.4-.8.4-1.4c0-.5-.1-1-.3-1.3s-.5-.6-.9-.7l-1.2-.3-1.3-.1h-2.9v5h2.5zM178.8 44.5h12.3v3h-9V52h8.5v3h-8.5v5h9.5v3h-12.8V44.5zM195.4 44.5h4.4l9 13.8h.1V44.5h3.3v18.6H208l-9.2-14.3h-.1v14.3h-3.3V44.5zM215.6 60.1l9.9-12.6h-9.8v-3h13.9v3l-10 12.6h10.2v3h-14.2v-3zM232.4 53.9a9.8 9.8 0 0 1 2.7-7.2c.9-.9 1.9-1.5 3.1-2a12.5 12.5 0 0 1 8-.1c1.2.4 2.2 1.1 3.1 2s1.6 1.9 2 3.1c.5 1.2.7 2.6.7 4 0 1.5-.2 2.8-.7 4a11 11 0 0 1-2 3.1c-.9.9-1.9 1.5-3.1 2-1.2.5-2.5.7-4 .7-1.4 0-2.8-.2-4-.7a9.2 9.2 0 0 1-3.1-2 8.3 8.3 0 0 1-2-3.1 9.2 9.2 0 0 1-.7-3.8zm3.4-.3c0 1 .2 1.9.5 2.8.3.8.7 1.6 1.3 2.2.6.6 1.2 1.1 2 1.4a7 7 0 0 0 5.2 0c.8-.3 1.5-.8 2-1.4.6-.6 1-1.3 1.3-2.2a7.5 7.5 0 0 0 0-5.4c-.3-.8-.7-1.5-1.3-2.1a5.6 5.6 0 0 0-2-1.4 7 7 0 0 0-5.2 0c-.8.3-1.4.8-2 1.4-.6.6-1 1.3-1.3 2.1a8 8 0 0 0-.5 2.6z"/></g><path fill="#F2933A" d="M66.7 71h120.1v2.3H66.7z"/><g fill="#F2933A"><path d="M123.8 8h-2.3v18.9c0 2.5-2 4.5-4.5 4.5v2.3c3.7 0 6.8-3 6.8-6.8V8zM132.6 8h-2.3v25.6h6.2v-2.3h-3.9zM117.1 0h19.4v2.3h-19.4zM117.1 35h19.4v2.3h-19.4zM125.9 10.5h2.3v19.4h-2.3z"/><path d="M136.8 3.8h-20.1a5 5 0 0 0-4.7 5c0 2.3 1.9 4.2 4.2 4.2 2 0 3.6-1.6 3.6-3.6h-2.3c0 .7-.6 1.3-1.3 1.3-1.1 0-1.9-.9-1.9-1.9 0-1.5 1.2-2.7 2.7-2.7h19.5c1.5 0 2.7 1.2 2.7 2.7 0 1.1-.9 1.9-1.9 1.9-.7 0-1.3-.6-1.3-1.3h-2.3c0 2 1.6 3.6 3.6 3.6 2.3 0 4.2-1.9 4.2-4.2a5 5 0 0 0-4.7-5z"/></g></svg>
