<?xml version="1.0" encoding="utf-8"?><svg xmlns="http://www.w3.org/2000/svg" xmlns:xlink="http://www.w3.org/1999/xlink"><symbol viewBox="0 0 154.1 133.8" id="icon-business-consulting" xmlns="http://www.w3.org/2000/svg"><g fill="none" stroke-width="6.5" stroke-miterlimit="10"><path stroke="#F4963B" d="M32.6 98.3l4.9 6.6 4.6-6.7zM37.3 103.8v30"/><path stroke="#23364A" d="M3.2 133.8v-28.9c0-5.6 4.6-10.2 10.2-10.2l45.9.4c7.1 0 12.8 5.7 12.8 12.8v25.9"/><circle stroke="#23364A" cx="37.7" cy="66.1" r="18.5"/><path stroke="#23364A" d="M48.1 115.6h13.4"/></g><path fill="none" stroke="#F4963B" stroke-width="6.5" stroke-miterlimit="10" d="M73.7 52.8l13.6-13.6L98 42.7l10.3-9.8 12.3 4.8 17.8-20.5"/><path fill="none" stroke="#23364A" stroke-width="6.5" stroke-miterlimit="10" d="M137 8.3H80.6c-5.8 0-10.5 4.7-10.5 10.5v26c0 4.9 3.4 9 7.9 10.2v16.4l16-16h43c5.8 0 10.5-4.7 10.5-10.5v-26c0-5.8-4.7-10.6-10.5-10.6z"/><path fill="none" stroke="#F4963B" stroke-width="6.5" stroke-miterlimit="10" d="M138.4 17.2l11.9-13.7"/><path fill="#F4963B" d="M150.2 14.2l-.7-9.8-9.7.7 3.8-4.4 9.8-.7.7 9.8z"/></symbol><symbol viewBox="0 0 145.4 128" id="icon-comm-litigation" xmlns="http://www.w3.org/2000/svg"><g fill="none" stroke-width="6.5" stroke-miterlimit="10"><path stroke="#23364A" d="M140.3 60.3h-32.8L119.7 30c1.3-3.2 5.8-3.3 7.2-.1l13.4 30.4z"/><path stroke="#23364A" stroke-linecap="round" d="M19.3 50.8l103.8-22.9"/><path stroke="#23364A" d="M70.3 22.6v91.8M44.7 112.8H96M44.7 124.8H96M102.6 72.9h42.8"/><path stroke="#F4963B" d="M37.6 83.3H4.8L17 53c1.3-3.2 5.8-3.3 7.2-.1l13.4 30.4zM.4 95.3h42.9"/><path stroke="#23364A" d="M71.5 23.5h-1.7c-5.1 0-9.2-4.2-9.2-9.2v-1.7c0-5.1 4.2-9.2 9.2-9.2h1.7c5.1 0 9.2 4.2 9.2 9.2v1.7c0 5-4.1 9.2-9.2 9.2z"/></g></symbol><symbol viewBox="0 0 84.3 132.4" id="icon-corp-defense" xmlns="http://www.w3.org/2000/svg"><path fill="none" stroke="#23364A" stroke-width="6.5" stroke-miterlimit="10" d="M25.2 107.3H10.1c-3.8 0-6.9-3.1-6.9-6.9V67.9c0-6.3 5.1-11.5 11.5-11.5l51.9.4c8 0 14.5 6.5 14.5 14.5v57.8H13.8v-14.9"/><path fill="none" stroke="#23364A" stroke-width="6.5" stroke-miterlimit="10" d="M50.9 92.9c4 0 7.2 3.2 7.2 7.2s-3.2 7.2-7.2 7.2M64.7 129V79.1"/><path fill="none" stroke="#F4963B" stroke-width="6.5" stroke-miterlimit="10" d="M27.7 19.6l21.2-.1h19.7M54.9 3.5l-6.7 15.3"/><circle fill="none" stroke="#23364A" stroke-width="6.5" stroke-miterlimit="10" cx="46.5" cy="24.1" r="20.9"/><path fill="none" stroke="#F4963B" stroke-width="6.5" stroke-miterlimit="10" d="M49.9 113.2H25.4l3.7-56.7 17.1.2z"/></symbol><symbol viewBox="0 0 172.6 142.5" id="icon-download" xmlns="http://www.w3.org/2000/svg"><path fill="none" stroke="currentColor" stroke-miterlimit="10" stroke-width="6.5" d="M114.3 92.1h55v47.1H3.2V92.1H58"/><path fill="currentColor" stroke="currentColor" stroke-miterlimit="10" stroke-width="6.5" d="M100.3 55.9V3.2h-28v52.7H55.6l30.2 61.3L117 55.9z"/><g fill="none" stroke="currentColor" stroke-miterlimit="10" stroke-width="6.5"><circle cx="123" cy="122.2" r="5.7"/><circle cx="145.7" cy="122.2" r="5.7"/></g></symbol><symbol viewBox="0 0 172.6 116.2" id="icon-envelope" xmlns="http://www.w3.org/2000/svg"><path fill="none" stroke="currentColor" stroke-miterlimit="10" stroke-width="6.5" d="M3.3 3.3h166.1V113H3.3z"/><path fill="none" stroke="currentColor" stroke-linecap="round" stroke-miterlimit="10" stroke-width="6.5" d="M151.5 17.5L88.3 57.2 85 59.3l-.6-.4-65.8-41.4M74.8 54.9L21.5 97.1m73.7-42.2l53.4 42.2"/></symbol><symbol viewBox="0 0 157.5 111" stroke-width="4" id="icon-phone" xmlns="http://www.w3.org/2000/svg"><path fill="none" stroke="currentColor" d="M135.2 46.8h-24.5v-13H98.2v13h-39v-13H46.8v13H22.2l-8.5 51.5c-.8 5 3 9.5 8 9.5h113.8c5 0 8.8-4.5 8-9.5l-8.3-51.5z"/><path fill="none" stroke="currentColor" d="M21.2 63.8h-18c0-5.9 1.1-11.6 3-17C15.4 21.6 44.4 3.2 78.8 3.2c34.7 0 64 18.8 72.8 44.4a48.2 48.2 0 0 1 2.7 16.1h-16"/><ellipse cx="78.8" cy="70.8" fill="none" stroke="currentColor" rx="31.8" ry="14.8"/></symbol><symbol viewBox="0 0 122.2 134.2" id="icon-real-estate" xmlns="http://www.w3.org/2000/svg"><g fill="none" stroke="#23364A" stroke-width="6.5" stroke-miterlimit="10"><path d="M69 47.4V25.6l17.5-14H119v122.6M87.5 29.4h23.3M87.5 41.8h23.3M87.5 54.1h23.3M87.5 66.4h23.3M87.5 78.8h23.3M87.5 91.1h23.3M87.5 103.4h23.3M87.5 115.8h23.3M87.5 128.1h23.3"/></g><g fill="none" stroke="#23364A" stroke-width="6.5" stroke-miterlimit="10"><path d="M3.2 134.2v-117l17.5-14h32.5v44.9M21.8 21.1h23.3M21.8 33.4h23.3M21.8 45.8h23.3M21.8 58.1h16M21.8 70.4h13.6M21.8 82.8h13.6M21.8 95.1h13.6M21.8 107.4h13.6M21.8 119.8h13.6"/></g><g fill="none" stroke="#F4963B" stroke-width="6.5" stroke-miterlimit="10"><path d="M34.6 134.2V61.6l17.5-14h32.5v86.6M53.1 65.4h23.3M53.1 77.8h23.3M53.1 90.1h23.3M53.1 102.4h23.3M53.1 114.8h23.3M53.1 127.1h23.3"/></g></symbol><symbol viewBox="0 0 252.1 73.3" id="logo-jenkinslorenzo" xmlns="http://www.w3.org/2000/svg"><path d="M11.1 57.9c0 .7-.1 1.4-.4 2.1s-.6 1.3-1 1.8c-.5.5-1 .9-1.7 1.2a6 6 0 0 1-2.4.5c-1.5 0-2.7-.3-3.6-1a5.4 5.4 0 0 1-1.9-3.3l3.1-.7c.1.6.4 1.1.7 1.5.4.4.9.6 1.5.6.9 0 1.6-.3 1.9-1 .3-.6.4-1.5.4-2.6V44.5H11v13.4zm4.5-13.4h12.3v3h-9V52h8.5v3h-8.5v5h9.5v3H15.6V44.5zm16.6 0h4.4l9 13.8h.1V44.5H49v18.6h-4.2l-9.2-14.3h-.1v14.3h-3.3V44.5zm21.4 0h3.3v7.9h.1l7.7-7.9h4.5l-8.7 8.6 9.3 10h-4.6L57.1 54h-.2v9.1h-3.3V44.5zm18.4 0h3.3v18.6H72V44.5zm7.9 0h4.4l9 13.8h.1V44.5h3.3v18.6h-4.2l-9.2-14.3h-.1v14.3h-3.3V44.5zm30.5 4a3 3 0 0 0-1.4-1.1c-.6-.2-1.2-.4-1.9-.4l-1.1.1a3 3 0 0 0-1 .4l-.7.7a2 2 0 0 0-.3 1.1c0 .6.2 1.1.7 1.4l1.6.9 2.1.7c.8.2 1.5.5 2.1.9.6.4 1.2.9 1.6 1.6s.7 1.5.7 2.7c0 1-.2 1.9-.6 2.6a7 7 0 0 1-1.5 1.9c-.6.5-1.3.9-2.2 1.1s-1.7.4-2.6.4c-1.2 0-2.3-.2-3.3-.6s-2-1-2.8-1.9l2.5-2.4c.4.6.9 1.1 1.6 1.4s1.4.5 2.1.5a5 5 0 0 0 1.2-.2l1-.5.8-.8c.2-.3.3-.7.3-1.1 0-.7-.2-1.2-.7-1.6-.4-.4-1-.7-1.6-.9l-2.1-.7c-.8-.2-1.5-.5-2.1-.9s-1.2-.9-1.6-1.6a5 5 0 0 1-.7-2.6 5 5 0 0 1 2.1-4.2c.6-.5 1.4-.8 2.2-1a10.7 10.7 0 0 1 5.3.1c.9.3 1.7.8 2.5 1.5l-2.2 2.5zm14.8-4h3.3v15.6h7.9v3h-11.2V44.5zm13.2 9.4a9.8 9.8 0 0 1 2.7-7.2c.9-.9 1.9-1.5 3.1-2a12.5 12.5 0 0 1 8-.1c1.2.4 2.2 1.1 3.1 2s1.6 1.9 2 3.1c.5 1.2.7 2.6.7 4 0 1.5-.2 2.8-.7 4a11 11 0 0 1-2 3.1c-.9.9-1.9 1.5-3.1 2-1.2.5-2.5.7-4 .7-1.4 0-2.8-.2-4-.7a9.2 9.2 0 0 1-3.1-2 8.3 8.3 0 0 1-2-3.1 9.2 9.2 0 0 1-.7-3.8zm3.4-.3c0 1 .2 1.9.5 2.8.3.8.7 1.6 1.3 2.2.6.6 1.2 1.1 2 1.4a7 7 0 0 0 5.2 0c.8-.3 1.5-.8 2-1.4.6-.6 1-1.3 1.3-2.2a7.5 7.5 0 0 0 0-5.4c-.3-.8-.7-1.5-1.3-2.1a5.6 5.6 0 0 0-2-1.4 7 7 0 0 0-5.2 0c-.8.3-1.4.8-2 1.4-.6.6-1 1.3-1.3 2.1a8 8 0 0 0-.5 2.6zm19.9-9.1h6.5l2.6.2c.8.2 1.6.5 2.2.9.6.4 1.2.9 1.5 1.6.4.7.6 1.5.6 2.6 0 1.3-.4 2.5-1.1 3.4-.7.9-1.8 1.5-3.2 1.7l4.9 8.2h-4l-4.3-7.9H165v7.9h-3.3V44.5zm5.9 7.9l1.4-.1c.5 0 .9-.1 1.3-.3.4-.2.7-.4 1-.8s.4-.8.4-1.4c0-.5-.1-1-.3-1.3s-.5-.6-.9-.7l-1.2-.3-1.3-.1h-2.9v5h2.5zm11.2-7.9h12.3v3h-9V52h8.5v3h-8.5v5h9.5v3h-12.8V44.5zm16.6 0h4.4l9 13.8h.1V44.5h3.3v18.6H208l-9.2-14.3h-.1v14.3h-3.3V44.5zm20.2 15.6l9.9-12.6h-9.8v-3h13.9v3l-10 12.6h10.2v3h-14.2v-3zm16.8-6.2a9.8 9.8 0 0 1 2.7-7.2c.9-.9 1.9-1.5 3.1-2a12.5 12.5 0 0 1 8-.1c1.2.4 2.2 1.1 3.1 2s1.6 1.9 2 3.1c.5 1.2.7 2.6.7 4 0 1.5-.2 2.8-.7 4a11 11 0 0 1-2 3.1c-.9.9-1.9 1.5-3.1 2-1.2.5-2.5.7-4 .7-1.4 0-2.8-.2-4-.7a9.2 9.2 0 0 1-3.1-2 8.3 8.3 0 0 1-2-3.1 9.2 9.2 0 0 1-.7-3.8zm3.4-.3c0 1 .2 1.9.5 2.8.3.8.7 1.6 1.3 2.2.6.6 1.2 1.1 2 1.4a7 7 0 0 0 5.2 0c.8-.3 1.5-.8 2-1.4.6-.6 1-1.3 1.3-2.2a7.5 7.5 0 0 0 0-5.4c-.3-.8-.7-1.5-1.3-2.1a5.6 5.6 0 0 0-2-1.4 7 7 0 0 0-5.2 0c-.8.3-1.4.8-2 1.4-.6.6-1 1.3-1.3 2.1a8 8 0 0 0-.5 2.6z" fill="currentColor"/><path fill="#F2933A" d="M66.7 71h120.1v2.3H66.7z"/><g fill="#F2933A"><path d="M123.8 8h-2.3v18.9c0 2.5-2 4.5-4.5 4.5v2.3c3.7 0 6.8-3 6.8-6.8V8zm8.8 0h-2.3v25.6h6.2v-2.3h-3.9zm-15.5-8h19.4v2.3h-19.4zm0 35h19.4v2.3h-19.4zm8.8-24.5h2.3v19.4h-2.3z"/><path d="M136.8 3.8h-20.1a5 5 0 0 0-4.7 5c0 2.3 1.9 4.2 4.2 4.2 2 0 3.6-1.6 3.6-3.6h-2.3c0 .7-.6 1.3-1.3 1.3-1.1 0-1.9-.9-1.9-1.9 0-1.5 1.2-2.7 2.7-2.7h19.5c1.5 0 2.7 1.2 2.7 2.7 0 1.1-.9 1.9-1.9 1.9-.7 0-1.3-.6-1.3-1.3h-2.3c0 2 1.6 3.6 3.6 3.6 2.3 0 4.2-1.9 4.2-4.2a5 5 0 0 0-4.7-5z"/></g></symbol><symbol viewBox="0 0 0 0" id="sprite" xmlns="http://www.w3.org/2000/svg"/></svg>