<?xml version="1.0" encoding="utf-8"?>
<!-- Generator: Adobe Illustrator 22.1.0, SVG Export Plug-In . SVG Version: 6.00 Build 0)  -->
<svg version="1.1" id="Layer_1" xmlns="http://www.w3.org/2000/svg" xmlns:xlink="http://www.w3.org/1999/xlink" x="0px" y="0px"
	 viewBox="0 0 154.1 133.8" enable-background="new 0 0 154.1 133.8" xml:space="preserve">
<g>
	<polygon fill="none" stroke="#F4963B" stroke-width="6.5" stroke-miterlimit="10" points="32.6,98.3 37.5,104.9 42.1,98.2 	"/>
	<line fill="none" stroke="#F4963B" stroke-width="6.5" stroke-miterlimit="10" x1="37.3" y1="103.8" x2="37.3" y2="133.8"/>
	<path fill="none" stroke="#23364A" stroke-width="6.5" stroke-miterlimit="10" d="M3.2,133.8v-28.9c0-5.6,4.6-10.2,10.2-10.2h0
		l45.9,0.4c7.1,0,12.8,5.7,12.8,12.8v25.9"/>
	<path fill="none" stroke="#23364A" stroke-width="6.5" stroke-miterlimit="10" d="M57.6,133.8"/>
	<circle fill="none" stroke="#23364A" stroke-width="6.5" stroke-miterlimit="10" cx="37.7" cy="66.1" r="18.5"/>
	<path fill="none" stroke="#23364A" stroke-width="6.5" stroke-miterlimit="10" d="M41.1,95.4"/>
	<line fill="none" stroke="#23364A" stroke-width="6.5" stroke-miterlimit="10" x1="48.1" y1="115.6" x2="61.5" y2="115.6"/>
</g>
<g>
	<polyline fill="none" stroke="#F4963B" stroke-width="6.5" stroke-miterlimit="10" points="73.7,52.8 87.3,39.2 98,42.7 
		108.3,32.9 120.6,37.7 138.4,17.2 	"/>
	<path fill="none" stroke="#23364A" stroke-width="6.5" stroke-miterlimit="10" d="M137,8.3H80.6c-5.8,0-10.5,4.7-10.5,10.5v26
		c0,4.9,3.4,9,7.9,10.2v16.4L94,55.4H137c5.8,0,10.5-4.7,10.5-10.5v-26C147.5,13.1,142.8,8.3,137,8.3z"/>
	<g>
		<g>
			<line fill="none" stroke="#F4963B" stroke-width="6.5" stroke-miterlimit="10" x1="138.4" y1="17.2" x2="150.3" y2="3.5"/>
			<g>
				<polygon fill="#F4963B" points="150.2,14.2 149.5,4.4 139.8,5.1 143.6,0.7 153.4,0 154.1,9.8 				"/>
			</g>
		</g>
	</g>
</g>
<path fill="none" stroke="#F4963B" stroke-width="6.5" stroke-miterlimit="10" d="M83.7,24.7"/>
</svg>
