<?xml version="1.0" encoding="utf-8"?>
<!-- Generator: Adobe Illustrator 22.1.0, SVG Export Plug-In . SVG Version: 6.00 Build 0)  -->
<svg version="1.1" id="Layer_1" xmlns="http://www.w3.org/2000/svg" xmlns:xlink="http://www.w3.org/1999/xlink" x="0px" y="0px"
	 viewBox="0 0 122.2 134.2" enable-background="new 0 0 122.2 134.2" xml:space="preserve">
<g>
	<polyline fill="none" stroke="#23364A" stroke-width="6.5" stroke-miterlimit="10" points="69,47.4 69,43.6 69,25.6 86.5,11.6 
		119,11.6 119,134.2 	"/>
	<line fill="none" stroke="#23364A" stroke-width="6.5" stroke-miterlimit="10" x1="87.5" y1="29.4" x2="110.8" y2="29.4"/>
	<line fill="none" stroke="#23364A" stroke-width="6.5" stroke-miterlimit="10" x1="87.5" y1="41.8" x2="110.8" y2="41.8"/>
	<line fill="none" stroke="#23364A" stroke-width="6.5" stroke-miterlimit="10" x1="87.5" y1="54.1" x2="110.8" y2="54.1"/>
	<line fill="none" stroke="#23364A" stroke-width="6.5" stroke-miterlimit="10" x1="87.5" y1="66.4" x2="110.8" y2="66.4"/>
	<line fill="none" stroke="#23364A" stroke-width="6.5" stroke-miterlimit="10" x1="87.5" y1="78.8" x2="110.8" y2="78.8"/>
	<line fill="none" stroke="#23364A" stroke-width="6.5" stroke-miterlimit="10" x1="87.5" y1="91.1" x2="110.8" y2="91.1"/>
	<line fill="none" stroke="#23364A" stroke-width="6.5" stroke-miterlimit="10" x1="87.5" y1="103.4" x2="110.8" y2="103.4"/>
	<line fill="none" stroke="#23364A" stroke-width="6.5" stroke-miterlimit="10" x1="87.5" y1="115.8" x2="110.8" y2="115.8"/>
	<line fill="none" stroke="#23364A" stroke-width="6.5" stroke-miterlimit="10" x1="87.5" y1="128.1" x2="110.8" y2="128.1"/>
</g>
<g>
	<polyline fill="none" stroke="#23364A" stroke-width="6.5" stroke-miterlimit="10" points="3.2,134.2 3.2,35.2 3.2,17.2 20.7,3.2 
		53.2,3.2 53.2,48.1 	"/>
	<line fill="none" stroke="#23364A" stroke-width="6.5" stroke-miterlimit="10" x1="21.8" y1="21.1" x2="45.1" y2="21.1"/>
	<line fill="none" stroke="#23364A" stroke-width="6.5" stroke-miterlimit="10" x1="21.8" y1="33.4" x2="45.1" y2="33.4"/>
	<line fill="none" stroke="#23364A" stroke-width="6.5" stroke-miterlimit="10" x1="21.8" y1="45.8" x2="45.1" y2="45.8"/>
	<line fill="none" stroke="#23364A" stroke-width="6.5" stroke-miterlimit="10" x1="21.8" y1="58.1" x2="37.8" y2="58.1"/>
	<line fill="none" stroke="#23364A" stroke-width="6.5" stroke-miterlimit="10" x1="21.8" y1="70.4" x2="35.4" y2="70.4"/>
	<line fill="none" stroke="#23364A" stroke-width="6.5" stroke-miterlimit="10" x1="21.8" y1="82.8" x2="35.4" y2="82.8"/>
	<line fill="none" stroke="#23364A" stroke-width="6.5" stroke-miterlimit="10" x1="21.8" y1="95.1" x2="35.4" y2="95.1"/>
	<line fill="none" stroke="#23364A" stroke-width="6.5" stroke-miterlimit="10" x1="21.8" y1="107.4" x2="35.4" y2="107.4"/>
	<line fill="none" stroke="#23364A" stroke-width="6.5" stroke-miterlimit="10" x1="21.8" y1="119.8" x2="35.4" y2="119.8"/>
</g>
<g>
	<polyline fill="none" stroke="#F4963B" stroke-width="6.5" stroke-miterlimit="10" points="34.6,134.2 34.6,79.6 34.6,61.6 
		52.1,47.6 84.6,47.6 84.6,134.2 	"/>
	<line fill="none" stroke="#F4963B" stroke-width="6.5" stroke-miterlimit="10" x1="53.1" y1="65.4" x2="76.4" y2="65.4"/>
	<line fill="none" stroke="#F4963B" stroke-width="6.5" stroke-miterlimit="10" x1="53.1" y1="77.8" x2="76.4" y2="77.8"/>
	<line fill="none" stroke="#F4963B" stroke-width="6.5" stroke-miterlimit="10" x1="53.1" y1="90.1" x2="76.4" y2="90.1"/>
	<line fill="none" stroke="#F4963B" stroke-width="6.5" stroke-miterlimit="10" x1="53.1" y1="102.4" x2="76.4" y2="102.4"/>
	<line fill="none" stroke="#F4963B" stroke-width="6.5" stroke-miterlimit="10" x1="53.1" y1="114.8" x2="76.4" y2="114.8"/>
	<line fill="none" stroke="#F4963B" stroke-width="6.5" stroke-miterlimit="10" x1="53.1" y1="127.1" x2="76.4" y2="127.1"/>
</g>
</svg>
