<?xml version="1.0" encoding="utf-8"?>
<!-- Generator: Adobe Illustrator 22.1.0, SVG Export Plug-In . SVG Version: 6.00 Build 0)  -->
<svg version="1.1" id="Layer_1" xmlns="http://www.w3.org/2000/svg" xmlns:xlink="http://www.w3.org/1999/xlink" x="0px" y="0px"
	 viewBox="0 0 290.2 37.3" enable-background="new 0 0 290.2 37.3" xml:space="preserve">
<g>
	<path fill="#FFFFFF" d="M10.7,23.5c0,0.7-0.1,1.3-0.2,2c-0.1,0.6-0.3,1.2-0.6,1.7c-0.3,0.5-0.7,0.9-1.2,1.2c-0.5,0.3-1.2,0.5-2,0.5
		c-1,0-1.9-0.3-2.5-0.9c-0.6-0.6-1-1.3-1.2-2.3L0,26.2c0.3,1.8,1.1,3.1,2.2,4c1.2,0.9,2.6,1.3,4.3,1.3c1.3,0,2.4-0.2,3.3-0.6
		c0.9-0.4,1.6-1,2.2-1.6c0.5-0.7,0.9-1.4,1.2-2.2c0.2-0.8,0.4-1.7,0.4-2.5V6.3h-2.9V23.5z"/>
	<path fill="#FFFFFF" d="M32.2,16.4c-0.7-0.7-1.5-1.3-2.5-1.7c-0.9-0.4-2-0.6-3.1-0.6c-1.2,0-2.3,0.2-3.3,0.6s-1.9,1-2.6,1.8
		c-0.7,0.8-1.3,1.7-1.7,2.7c-0.4,1.1-0.6,2.2-0.6,3.5c0,1.2,0.2,2.3,0.6,3.3c0.4,1,0.9,1.9,1.6,2.7c0.7,0.8,1.6,1.4,2.6,1.8
		s2.2,0.7,3.4,0.7c1.5,0,2.9-0.2,4-0.7c1.2-0.5,2.2-1.4,3.2-2.6l-2-1.6c-0.6,0.8-1.4,1.4-2.2,1.8c-0.8,0.4-1.8,0.6-3,0.6
		c-0.7,0-1.4-0.1-2.1-0.4c-0.6-0.3-1.2-0.7-1.6-1.1c-0.5-0.5-0.8-1-1.1-1.7c-0.3-0.6-0.5-1.3-0.5-2h13.1v-0.9c0-1.3-0.2-2.5-0.6-3.6
		C33.4,18,32.9,17.2,32.2,16.4z M21.2,21.3c0.2-1.4,0.7-2.5,1.7-3.3s2.1-1.3,3.6-1.3c1.5,0,2.7,0.4,3.5,1.3c0.9,0.8,1.3,1.9,1.4,3.3
		H21.2z"/>
	<path fill="#FFFFFF" d="M51.2,16c-0.5-0.6-1.2-1-1.9-1.4c-0.8-0.3-1.7-0.5-2.8-0.5c-0.7,0-1.3,0.1-1.9,0.3s-1.1,0.4-1.6,0.7
		c-0.5,0.3-0.9,0.6-1.2,1c-0.3,0.4-0.6,0.8-0.8,1.1H41c0-0.5,0-0.9,0-1.4c0-0.4,0-0.9,0-1.3h-2.6c0,0.5,0,1.1,0.1,1.8
		c0,0.6,0.1,1.3,0.1,2.1v12.4h2.7v-7.9c0-0.9,0.1-1.8,0.3-2.5c0.2-0.8,0.5-1.4,0.9-2c0.4-0.6,0.9-1,1.6-1.3s1.4-0.5,2.3-0.5
		c1.3,0,2.2,0.4,2.8,1.2c0.6,0.8,0.9,1.9,0.9,3.2v9.8h2.7v-10c0-1-0.1-1.9-0.4-2.7S51.7,16.6,51.2,16z"/>
	<polygon fill="#FFFFFF" points="71.8,14.6 68,14.6 60.6,21.8 60.6,4.6 57.9,4.6 57.9,30.9 60.6,30.9 60.6,22.3 68.6,30.9 
		72.6,30.9 64,22 	"/>
	<rect x="75.5" y="14.6" fill="#FFFFFF" width="2.7" height="16.3"/>
	<path fill="#FFFFFF" d="M76.8,6.3c-0.6,0-1,0.2-1.4,0.6c-0.4,0.4-0.6,0.9-0.6,1.4c0,0.6,0.2,1.1,0.6,1.4c0.4,0.4,0.8,0.6,1.4,0.6
		c0.6,0,1.1-0.2,1.4-0.6c0.4-0.4,0.6-0.8,0.6-1.4c0-0.5-0.2-1-0.6-1.4C77.9,6.5,77.4,6.3,76.8,6.3z"/>
	<path fill="#FFFFFF" d="M96.3,16c-0.5-0.6-1.2-1-1.9-1.4c-0.8-0.3-1.7-0.5-2.8-0.5c-0.7,0-1.3,0.1-1.9,0.3
		c-0.6,0.2-1.1,0.4-1.6,0.7c-0.5,0.3-0.9,0.6-1.2,1c-0.3,0.4-0.6,0.8-0.8,1.1h-0.1c0-0.5,0-0.9,0-1.4c0-0.4,0-0.9,0-1.3h-2.6
		c0,0.5,0,1.1,0.1,1.8s0.1,1.3,0.1,2.1v12.4h2.7v-7.9c0-0.9,0.1-1.8,0.3-2.5s0.5-1.4,0.9-2c0.4-0.6,0.9-1,1.6-1.3
		c0.6-0.3,1.4-0.5,2.3-0.5c1.3,0,2.2,0.4,2.8,1.2c0.6,0.8,0.9,1.9,0.9,3.2v9.8h2.7v-10c0-1-0.1-1.9-0.4-2.7
		C97.1,17.3,96.8,16.6,96.3,16z"/>
	<path fill="#FFFFFF" d="M112.4,22.7c-0.5-0.4-1.1-0.7-1.7-0.9c-0.6-0.2-1.3-0.4-2.1-0.5c-0.5-0.1-1-0.2-1.5-0.3s-0.9-0.3-1.3-0.5
		s-0.7-0.4-0.9-0.6c-0.2-0.2-0.3-0.5-0.3-0.9c0-0.4,0.1-0.7,0.3-1c0.2-0.3,0.4-0.5,0.7-0.7s0.6-0.3,1-0.4c0.4-0.1,0.8-0.1,1.1-0.1
		c0.8,0,1.5,0.2,2.1,0.5c0.6,0.4,1,0.8,1.4,1.4l2.3-1.5c-0.6-1-1.3-1.8-2.3-2.3s-2.1-0.7-3.2-0.7c-0.8,0-1.5,0.1-2.2,0.3
		c-0.7,0.2-1.4,0.5-1.9,0.9c-0.6,0.4-1,0.9-1.4,1.5c-0.3,0.6-0.5,1.3-0.5,2.1c0,0.8,0.2,1.5,0.5,2c0.3,0.5,0.7,1,1.2,1.3
		c0.5,0.3,1.1,0.6,1.8,0.8c0.7,0.2,1.4,0.4,2.2,0.6c0.4,0.1,0.9,0.2,1.3,0.3c0.4,0.1,0.8,0.3,1.1,0.5c0.3,0.2,0.6,0.4,0.8,0.7
		c0.2,0.3,0.3,0.6,0.3,1.1s-0.1,0.8-0.3,1.1c-0.2,0.3-0.5,0.6-0.8,0.8c-0.3,0.2-0.7,0.4-1.2,0.5s-0.9,0.1-1.3,0.1
		c-1,0-1.8-0.2-2.4-0.6c-0.6-0.4-1.2-0.9-1.8-1.6l-2.2,1.7c0.8,1.2,1.7,2,2.7,2.4c1,0.4,2.2,0.6,3.6,0.6c0.8,0,1.6-0.1,2.4-0.3
		c0.8-0.2,1.5-0.5,2.1-0.9c0.6-0.4,1.1-0.9,1.5-1.6s0.6-1.4,0.6-2.4c0-0.8-0.1-1.5-0.4-2.1C113.2,23.6,112.8,23.1,112.4,22.7z"/>
	<polygon fill="#FFFFFF" points="173.5,6.3 170.6,6.3 170.6,30.9 184.8,30.9 184.8,28.2 173.5,28.2 	"/>
	<path fill="#FFFFFF" d="M201.5,16.6c-0.8-0.8-1.7-1.3-2.7-1.8c-1.1-0.4-2.2-0.6-3.5-0.6s-2.4,0.2-3.5,0.6c-1.1,0.4-2,1-2.7,1.8
		s-1.4,1.7-1.8,2.7c-0.4,1-0.7,2.2-0.7,3.5c0,1.3,0.2,2.4,0.7,3.5c0.4,1,1,1.9,1.8,2.7c0.8,0.8,1.7,1.3,2.7,1.8
		c1.1,0.4,2.2,0.6,3.5,0.6s2.4-0.2,3.5-0.6c1.1-0.4,2-1,2.7-1.8c0.8-0.8,1.4-1.7,1.8-2.7c0.4-1,0.7-2.2,0.7-3.5
		c0-1.3-0.2-2.4-0.7-3.5C202.8,18.2,202.2,17.3,201.5,16.6z M200.6,25.1c-0.3,0.7-0.7,1.4-1.2,1.9c-0.5,0.5-1.1,1-1.8,1.3
		c-0.7,0.3-1.5,0.5-2.4,0.5c-0.9,0-1.7-0.2-2.4-0.5c-0.7-0.3-1.3-0.7-1.8-1.3c-0.5-0.5-0.9-1.2-1.2-1.9c-0.3-0.7-0.4-1.5-0.4-2.4
		c0-0.9,0.1-1.7,0.4-2.4c0.3-0.7,0.7-1.4,1.2-1.9c0.5-0.5,1.1-1,1.8-1.3c0.7-0.3,1.5-0.5,2.4-0.5c0.9,0,1.7,0.2,2.4,0.5
		c0.7,0.3,1.3,0.7,1.8,1.3c0.5,0.5,0.9,1.2,1.2,1.9c0.3,0.7,0.4,1.5,0.4,2.4C201,23.6,200.9,24.4,200.6,25.1z"/>
	<path fill="#FFFFFF" d="M216.1,14.2c-0.7,0-1.3,0.1-1.9,0.3s-1.1,0.4-1.6,0.7c-0.5,0.3-0.9,0.6-1.2,1c-0.3,0.4-0.6,0.8-0.8,1.1
		h-0.1c0-0.5,0-0.9,0-1.4c0-0.4,0-0.9,0-1.3H208c0,0.5,0,1.1,0.1,1.8c0,0.6,0.1,1.3,0.1,2.1v12.4h2.7v-7.9c0-1.9,0.4-3.4,1.1-4.4
		c0.8-1.1,2-1.6,3.6-1.6c0.5,0,1,0.1,1.5,0.2l0.2-2.7c-0.2-0.1-0.4-0.1-0.6-0.1C216.5,14.2,216.3,14.2,216.1,14.2z"/>
	<path fill="#FFFFFF" d="M232.7,16.4c-0.7-0.7-1.5-1.3-2.4-1.7c-1-0.4-2-0.6-3.1-0.6c-1.2,0-2.3,0.2-3.3,0.6c-1,0.4-1.9,1-2.6,1.8
		c-0.7,0.8-1.3,1.7-1.7,2.7c-0.4,1.1-0.6,2.2-0.6,3.5c0,1.2,0.2,2.3,0.6,3.3c0.4,1,0.9,1.9,1.6,2.7s1.6,1.4,2.6,1.8
		c1,0.5,2.2,0.7,3.4,0.7c1.5,0,2.9-0.2,4-0.7s2.2-1.4,3.2-2.6l-2.1-1.6c-0.6,0.8-1.4,1.4-2.2,1.8s-1.8,0.6-3,0.6
		c-0.7,0-1.4-0.1-2.1-0.4c-0.6-0.3-1.2-0.7-1.6-1.1c-0.5-0.5-0.8-1-1.1-1.7c-0.3-0.6-0.5-1.3-0.5-2h13.1v-0.9c0-1.3-0.2-2.5-0.6-3.6
		C233.9,18,233.4,17.2,232.7,16.4z M221.7,21.3c0.2-1.4,0.7-2.5,1.7-3.3c0.9-0.8,2.1-1.3,3.6-1.3s2.7,0.4,3.5,1.3s1.3,1.9,1.4,3.3
		H221.7z"/>
	<path fill="#FFFFFF" d="M251.7,16c-0.5-0.6-1.2-1-1.9-1.4c-0.8-0.3-1.7-0.5-2.8-0.5c-0.7,0-1.3,0.1-1.9,0.3
		c-0.6,0.2-1.1,0.4-1.6,0.7c-0.5,0.3-0.9,0.6-1.2,1c-0.3,0.4-0.6,0.8-0.8,1.1h-0.1c0-0.5,0-0.9,0-1.4c0-0.4,0-0.9,0-1.3h-2.6
		c0,0.5,0,1.1,0.1,1.8c0,0.6,0.1,1.3,0.1,2.1v12.4h2.7v-7.9c0-0.9,0.1-1.8,0.3-2.5c0.2-0.8,0.5-1.4,0.9-2c0.4-0.6,0.9-1,1.6-1.3
		c0.6-0.3,1.4-0.5,2.3-0.5c1.3,0,2.2,0.4,2.8,1.2c0.6,0.8,0.9,1.9,0.9,3.2v9.8h2.7v-10c0-1-0.1-1.9-0.4-2.7S252.2,16.6,251.7,16z"/>
	<polygon fill="#FFFFFF" points="269.9,16.7 269.9,14.6 257.3,14.6 257.3,16.9 266.4,16.9 256.8,28.7 256.8,30.9 270.2,30.9 
		270.2,28.6 260.4,28.6 	"/>
	<path fill="#FFFFFF" d="M289.6,19.3c-0.4-1-1-1.9-1.8-2.7s-1.7-1.3-2.7-1.8c-1.1-0.4-2.2-0.6-3.5-0.6c-1.3,0-2.4,0.2-3.5,0.6
		s-2,1-2.7,1.8c-0.8,0.8-1.4,1.7-1.8,2.7c-0.4,1-0.7,2.2-0.7,3.5c0,1.3,0.2,2.4,0.7,3.5c0.4,1,1,1.9,1.8,2.7
		c0.8,0.8,1.7,1.3,2.7,1.8c1.1,0.4,2.2,0.6,3.5,0.6c1.2,0,2.4-0.2,3.5-0.6c1.1-0.4,2-1,2.7-1.8c0.8-0.8,1.4-1.7,1.8-2.7
		c0.4-1,0.7-2.2,0.7-3.5C290.2,21.5,290,20.3,289.6,19.3z M286.9,25.1c-0.3,0.7-0.7,1.4-1.2,1.9c-0.5,0.5-1.1,1-1.8,1.3
		c-0.7,0.3-1.5,0.5-2.4,0.5c-0.9,0-1.7-0.2-2.4-0.5c-0.7-0.3-1.3-0.7-1.8-1.3c-0.5-0.5-0.9-1.2-1.2-1.9c-0.3-0.7-0.4-1.5-0.4-2.4
		c0-0.9,0.1-1.7,0.4-2.4c0.3-0.7,0.7-1.4,1.2-1.9c0.5-0.5,1.1-1,1.8-1.3c0.7-0.3,1.5-0.5,2.4-0.5c0.9,0,1.7,0.2,2.4,0.5
		c0.7,0.3,1.3,0.7,1.8,1.3c0.5,0.5,0.9,1.2,1.2,1.9c0.3,0.7,0.4,1.5,0.4,2.4C287.3,23.6,287.2,24.4,286.9,25.1z"/>
	<path fill="#F2933A" d="M139.4,8h-2.3v18.9c0,2.5-2,4.5-4.5,4.5v2.3c3.7,0,6.8-3,6.8-6.8V8z"/>
	<polygon fill="#F2933A" points="148.2,8 145.9,8 145.9,33.6 152.1,33.6 152.1,31.3 148.2,31.3 	"/>
	<rect x="132.7" fill="#F2933A" width="19.4" height="2.3"/>
	<rect x="132.7" y="35" fill="#F2933A" width="19.4" height="2.3"/>
	<rect x="141.5" y="10.5" fill="#F2933A" width="2.3" height="19.4"/>
	<path fill="#F2933A" d="M152.4,3.8L152.4,3.8l-20.1,0v0c-2.6,0.1-4.7,2.3-4.7,5c0,2.3,1.9,4.2,4.2,4.2c2,0,3.6-1.6,3.6-3.6h-2.3
		c0,0.7-0.6,1.3-1.3,1.3c-1.1,0-1.9-0.9-1.9-1.9c0-1.5,1.2-2.7,2.7-2.7h0h0.9v0h16.6v0l2,0c1.5,0,2.7,1.2,2.7,2.7
		c0,1.1-0.9,1.9-1.9,1.9c-0.7,0-1.3-0.6-1.3-1.3h-2.3c0,2,1.6,3.6,3.6,3.6c2.3,0,4.2-1.9,4.2-4.2C157.1,6.1,155,4,152.4,3.8z"/>
</g>
</svg>
